<?xml version="1.0" encoding="UTF-8"?>
<svg width="512" height="512" viewBox="0 0 512 512" fill="none" xmlns="http://www.w3.org/2000/svg">
  <!-- Badge Background -->
  <path d="M256 16C128.85 16 25.6 119.25 25.6 246.4C25.6 373.55 128.85 476.8 256 476.8C383.15 476.8 486.4 373.55 486.4 246.4C486.4 119.25 383.15 16 256 16Z" fill="#002166"/>

  <!-- Badge Shield -->
  <path d="M256 96C204.8 96 163.2 137.6 163.2 188.8V284.8C163.2 298.24 174.16 309.2 187.6 309.2H324.4C337.84 309.2 348.8 298.24 348.8 284.8V188.8C348.8 137.6 307.2 96 256 96Z" fill="#0046C7"/>

  <!-- Badge Star -->
  <path d="M256 128L279.04 198.4H353.28L293.12 242.4L316.16 312.8L256 268.8L195.84 312.8L218.88 242.4L158.72 198.4H232.96L256 128Z" fill="#FFD700"/>

  <!-- Badge Outline -->
  <circle cx="256" cy="246.4" r="180" stroke="#FFD700" stroke-width="8" fill="none"/>

  <!-- "LARK" Text -->
  <g transform="translate(156, 360) scale(1.2)">
    <path d="M20 0H0V40H20V0Z" fill="white" />
    <path d="M30 0H50V40H70V26.67H90V13.33H70V0H30V13.33H50V26.67H30V0Z" fill="white" />
    <path d="M100 0H120V26.67H140V13.33H160V26.67H180V0H200V40H100V0Z" fill="white" />
    <path d="M210 0H230V13.33H250V0H270V40H250V26.67H230V40H210V0Z" fill="white" />
  </g>
</svg>
